<svg width="14" height="9" viewBox="0 0 14 9" fill="none" xmlns="http://www.w3.org/2000/svg">
<path d="M6.11088 8.32827C6.17197 8.40443 6.25372 8.46671 6.34909 8.50973C6.44445 8.55275 6.55057 8.57523 6.65831 8.57523C6.76604 8.57523 6.87216 8.55275 6.96752 8.50973C7.06289 8.46671 7.14464 8.40443 7.20574 8.32827L13.1995 0.896908C13.2689 0.811194 13.3096 0.710799 13.3171 0.606631C13.3247 0.502463 13.2989 0.398506 13.2424 0.306054C13.186 0.213603 13.1011 0.136193 12.9971 0.0822355C12.893 0.0282781 12.7737 -0.000163687 12.6521 7.08639e-07H0.664549C0.543238 0.000430818 0.424358 0.0292383 0.320694 0.083325C0.21703 0.137412 0.132505 0.214731 0.0762075 0.306969C0.0199101 0.399206 -0.00602916 0.502872 0.0011793 0.606817C0.00838777 0.710763 0.0484712 0.811055 0.117119 0.896908L6.11088 8.32827Z" fill="#0E2134"/>
</svg>
