<svg width="25" height="25" viewBox="0 0 25 25" fill="none" xmlns="http://www.w3.org/2000/svg">
<path fill-rule="evenodd" clip-rule="evenodd" d="M3.1 10.85C3.1 8.79457 3.91652 6.82333 5.36992 5.36992C6.82333 3.91652 8.79457 3.1 10.85 3.1C12.9054 3.1 14.8767 3.91652 16.3301 5.36992C17.7835 6.82333 18.6 8.79457 18.6 10.85C18.6 12.9054 17.7835 14.8767 16.3301 16.3301C14.8767 17.7835 12.9054 18.6 10.85 18.6C8.79457 18.6 6.82333 17.7835 5.36992 16.3301C3.91652 14.8767 3.1 12.9054 3.1 10.85ZM10.85 0C9.1308 0 7.4362 0.408537 5.90587 1.19194C4.37553 1.97535 3.05326 3.1112 2.04802 4.50589C1.04279 5.90058 0.383364 7.51419 0.124093 9.21373C-0.135178 10.9133 0.013128 12.6501 0.556788 14.2811C1.10045 15.9121 2.0239 17.3905 3.25104 18.5946C4.47818 19.7986 5.97388 20.6939 7.61488 21.2065C9.25589 21.7191 10.9952 21.8344 12.6895 21.5429C14.3838 21.2514 15.9846 20.5615 17.36 19.53C17.4041 19.5886 17.4522 19.6441 17.5042 19.6959L22.1542 24.3459C22.4465 24.6282 22.838 24.7844 23.2444 24.7809C23.6508 24.7774 24.0396 24.6144 24.327 24.327C24.6144 24.0396 24.7774 23.6508 24.7809 23.2444C24.7844 22.838 24.6282 22.4465 24.3459 22.1542L19.6959 17.5042C19.6441 17.4522 19.5886 17.4041 19.53 17.36C20.739 15.748 21.4752 13.8312 21.6562 11.8244C21.8371 9.81756 21.4557 7.79998 20.5545 5.99773C19.6534 4.19549 18.2682 2.67977 16.5542 1.62044C14.8401 0.561104 12.865 0 10.85 0Z" fill="#0E2134"/>
</svg>
